<svg id="Layer_1" xmlns="http://www.w3.org/2000/svg" viewBox="0 0 44.22 45.34"><style>.st0{display:none;fill:#231f20}.st1{fill:#313131}</style><path class="st0" d="M27.19 19.79c2.85-1.68 4.78-4.78 4.78-8.32 0-5.33-4.33-9.66-9.66-9.66s-9.66 4.33-9.66 9.66c0 3.58 1.96 6.7 4.85 8.37-8.67 2.52-15.11 11.52-15.11 22.2 0 .46.01.9.03 1.35l.04.95H42.4l.04-.95c.02-.44.03-.89.03-1.35.01-10.76-6.51-19.8-15.28-22.25zm-12.54-8.32c0-4.22 3.44-7.66 7.66-7.66s7.66 3.44 7.66 7.66-3.44 7.66-7.66 7.66-7.66-3.44-7.66-7.66zm25.83 30.87H4.4v-.3c0-11.53 8.09-20.91 18.04-20.91s18.05 9.38 18.05 20.91c-.01.1-.01.2-.01.3z"/><path class="st0" d="M30.97 13.85V6.24l-.02-.2c-.01-.06-1.14-5.29-8.1-5.95V.02c-.26 0-.5.02-.74.03-.25-.01-.48-.03-.74-.03v.07c-6.96.66-8.09 5.9-8.1 5.95l-.01 7.81H.21l6.7 26.11a7.146 7.146 0 0 0 6.92 5.37h16.55c3.26 0 6.11-2.21 6.92-5.37L44 13.85H30.97zM15.24 6.36c.16-.6 1.35-4.02 6.87-4.31 5.53.29 6.71 3.72 6.87 4.31v7.49H15.24V6.36zm20.13 33.1a5.126 5.126 0 0 1-4.98 3.86H13.83c-2.35 0-4.4-1.59-4.98-3.86L2.79 15.85h10.46l-.01 6.26h2v-6.26h13.74v6.26h2v-6.26h10.45l-6.06 23.61z"/><path class="st1" d="M0 20.8l17.56 7.53 26.66-20.7-26.66 33.56z"/></svg>