<svg id="Layer_1" xmlns="http://www.w3.org/2000/svg" viewBox="0 0 44.22 45.34"><style>.st0{fill:#231f20}</style><path class="st0" d="M27.19 19.79c2.85-1.68 4.78-4.78 4.78-8.32 0-5.33-4.33-9.66-9.66-9.66s-9.66 4.33-9.66 9.66c0 3.58 1.96 6.7 4.85 8.37-8.67 2.52-15.11 11.52-15.11 22.2 0 .46.01.9.03 1.35l.04.95H42.4l.04-.95c.02-.44.03-.89.03-1.35.01-10.76-6.51-19.8-15.28-22.25zm-12.54-8.32c0-4.22 3.44-7.66 7.66-7.66s7.66 3.44 7.66 7.66-3.44 7.66-7.66 7.66-7.66-3.44-7.66-7.66zm25.83 30.87H4.4v-.3c0-11.53 8.09-20.91 18.04-20.91s18.05 9.38 18.05 20.91c-.01.1-.01.2-.01.3z"/></svg>