<svg id="Layer_1" xmlns="http://www.w3.org/2000/svg" viewBox="0 0 44.22 45.34"><style>.st0,.st1{display:none;fill:#231f20}.st1{fill:#313131}.st2{fill:#a51f68}</style><path class="st0" d="M27.19 19.79c2.85-1.68 4.78-4.78 4.78-8.32 0-5.33-4.33-9.66-9.66-9.66s-9.66 4.33-9.66 9.66c0 3.58 1.96 6.7 4.85 8.37-8.67 2.52-15.11 11.52-15.11 22.2 0 .46.01.9.03 1.35l.04.95H42.4l.04-.95c.02-.44.03-.89.03-1.35.01-10.76-6.51-19.8-15.28-22.25zm-12.54-8.32c0-4.22 3.44-7.66 7.66-7.66s7.66 3.44 7.66 7.66-3.44 7.66-7.66 7.66-7.66-3.44-7.66-7.66zm25.83 30.87H4.4v-.3c0-11.53 8.09-20.91 18.04-20.91s18.05 9.38 18.05 20.91c-.01.1-.01.2-.01.3z"/><path class="st0" d="M30.97 13.85V6.24l-.02-.2c-.01-.06-1.14-5.29-8.1-5.95V.02c-.26 0-.5.02-.74.03-.25-.01-.48-.03-.74-.03v.07c-6.96.66-8.09 5.9-8.1 5.95l-.01 7.81H.21l6.7 26.11a7.146 7.146 0 0 0 6.92 5.37h16.55c3.26 0 6.11-2.21 6.92-5.37L44 13.85H30.97zM15.24 6.36c.16-.6 1.35-4.02 6.87-4.31 5.53.29 6.71 3.72 6.87 4.31v7.49H15.24V6.36zm20.13 33.1a5.126 5.126 0 0 1-4.98 3.86H13.83c-2.35 0-4.4-1.59-4.98-3.86L2.79 15.85h10.46l-.01 6.26h2v-6.26h13.74v6.26h2v-6.26h10.45l-6.06 23.61z"/><path class="st1" d="M0 20.8l17.56 7.53 26.66-20.7-26.66 33.56z"/><path class="st2" d="M22.86 44.91h-5.12v-1.06-9.65-.55c-.03-1.17-.68-1.93-1.65-1.93-.96 0-1.62.76-1.63 1.94-.02 3.19-.01 6.37-.01 9.56v1.68H9.31c-.02-.39-.05-.75-.05-1.1 0-3.25 0-6.49-.01-9.74 0-.36-.01-.74-.09-1.09-.19-.77-.74-1.22-1.52-1.23-.83-.01-1.39.44-1.6 1.25-.08.32-.08.67-.08 1-.01 3.25 0 6.49 0 9.74v1.22c-1.64 0-3.19.02-4.73-.03-.16 0-.45-.39-.45-.6-.02-3.8-.14-7.6.04-11.39.25-5.11 5.82-8.05 10.26-5.51.59.34.98.32 1.55-.01 4.34-2.47 9.88.3 10.21 5.27.26 3.93.09 7.9.11 11.85.02.1-.04.22-.09.38zM9.27 22.34v-3.17c0-2.76.02-5.51-.01-8.27-.01-1.09-.76-1.82-1.69-1.79-.9.03-1.54.75-1.59 1.8-.01.24 0 .49 0 .74V22.34c-1.66 0-3.24.01-4.82-.03-.13 0-.37-.39-.37-.59-.01-3.83-.15-7.67.05-11.48.26-5.07 5.84-7.96 10.25-5.44.59.34.97.33 1.55 0 4.34-2.48 9.88.29 10.22 5.26.27 3.93.1 7.9.11 11.85 0 .12-.06.23-.1.39H17.8c-.02-.35-.04-.7-.04-1.05 0-3.4 0-6.8-.01-10.2 0-1.04-.45-1.68-1.27-1.89-1.04-.26-1.98.54-2 1.8-.03 2.14-.01 4.29-.01 6.43 0 1.41.03 2.82-.03 4.23-.01.25-.34.69-.53.7-1.5.05-2.99.02-4.64.02zM44.22 35.76c-.01 5.14-4.1 9.21-9.25 9.2a9.189 9.189 0 0 1-9.21-9.25c.02-5.12 4.17-9.24 9.26-9.22 5.12.01 9.21 4.14 9.2 9.27zm-9.25 3.97c2.2.01 3.99-1.73 4.03-3.93.04-2.2-1.78-4.07-3.99-4.08-2.2-.01-4.06 1.84-4.04 4.04.02 2.17 1.82 3.95 4 3.97zM44.22 13.18c-.02 5.13-4.13 9.18-9.28 9.16a9.195 9.195 0 0 1-9.17-9.29c.05-5.12 4.23-9.25 9.3-9.19 5.12.07 9.17 4.19 9.15 9.32zm-9.23 3.93c2.24 0 4.05-1.82 4.02-4.04-.03-2.18-1.83-3.96-4.01-3.97-2.2 0-4.05 1.86-4.03 4.05a4.027 4.027 0 0 0 4.02 3.96z"/></svg>